<?xml version="1.0" standalone="no"?>
<!DOCTYPE svg PUBLIC "-//W3C//DTD SVG 20010904//EN"
 "http://www.w3.org/TR/2001/REC-SVG-20010904/DTD/svg10.dtd">
<svg version="1.0" xmlns="http://www.w3.org/2000/svg"
 width="419.000000pt" height="419.000000pt" viewBox="0 0 419.000000 419.000000"
 preserveAspectRatio="xMidYMid meet">
<metadata>
Created by potrace 1.14, written by Peter Selinger 2001-2017
</metadata>
<g transform="translate(0.000000,419.000000) scale(0.100000,-0.100000)"
fill="#000000" stroke="none">
<path d="M340 2985 c0 -602 3 -1095 8 -1095 4 0 308 315 676 700 368 385 673
700 677 700 4 0 498 -277 1099 -615 601 -338 1094 -615 1096 -615 2 0 4 455 4
1010 l0 1010 -1780 0 -1780 0 0 -1095z"/>
<path d="M1633 2015 c-700 -211 -1277 -386 -1283 -390 -7 -4 -10 -255 -10
-751 l0 -744 1780 0 1780 0 0 520 0 520 -490 610 c-270 335 -494 611 -498 614
-4 2 -580 -169 -1279 -379z"/>
</g>
</svg>
